<?xml version="1.0" encoding="utf-8"?>
<!-- Generator: Adobe Illustrator 26.3.1, SVG Export Plug-In . SVG Version: 6.00 Build 0)  -->
<svg version="1.1" id="Layer_1" xmlns="http://www.w3.org/2000/svg" xmlns:xlink="http://www.w3.org/1999/xlink" x="0px" y="0px"
	 viewBox="0 0 281 54" style="enable-background:new 0 0 281 54;" xml:space="preserve">
<style type="text/css">
	.st0{fill:#FF00DB;}
</style>
<g>
	<g transform="scale(2,2)">
		<path class="st0" d="M21.8,11.4H17c-0.6,0-1.1-0.6-1-1.2l1.8-8.9c0.2-1-1.1-1.6-1.7-0.8L6.7,13.3c-0.5,0.7,0,1.6,0.8,1.6h4.7
			c0.6,0,1.1,0.6,1,1.2l-1.6,6.7c-0.2,1,1,1.6,1.7,0.9L22.6,13C23.1,12.3,22.6,11.3,21.8,11.4L21.8,11.4z M4.6,13.4
			c0-0.4-0.3-0.7-0.7-0.7H0.7C0.3,12.7,0,13,0,13.4c0,0.4,0.3,0.7,0.7,0.7h3.3C4.3,14.2,4.6,13.8,4.6,13.4z M4.8,18l-2.4,1.5
			c-0.3,0.2-0.4,0.6-0.2,1s0.6,0.5,1,0.2l2.4-1.5c0.2-0.1,0.3-0.4,0.3-0.6c0-0.1,0-0.3-0.1-0.4C5.6,17.9,5.1,17.8,4.8,18z M5.5,7.6
			L3.1,6.2c-0.3-0.2-0.8-0.1-1,0.2C2,6.7,2.1,7.2,2.4,7.4l2.4,1.5c0.3,0.2,0.8,0.1,1-0.2c0.1-0.1,0.1-0.2,0.1-0.4
			C5.9,8,5.7,7.8,5.5,7.6z M28.6,12.7h-3.3c-0.4,0-0.7,0.3-0.7,0.7c0,0.4,0.3,0.7,0.7,0.7h3.3c0.4,0,0.7-0.3,0.7-0.7
			C29.3,13,29,12.7,28.6,12.7z M26.9,19.5L24.5,18c-0.3-0.2-0.8-0.1-1,0.2c-0.1,0.1-0.1,0.2-0.1,0.4c0,0.2,0.1,0.5,0.3,0.6l2.4,1.5
			c0.3,0.2,0.8,0.1,1-0.2C27.3,20.1,27.2,19.7,26.9,19.5z M26.2,6.2l-2.4,1.5c-0.2,0.1-0.3,0.4-0.3,0.6c0,0.1,0,0.3,0.1,0.4
			c0.2,0.3,0.6,0.5,1,0.2l2.4-1.5c0.3-0.2,0.4-0.6,0.2-1C26.9,6.1,26.5,6,26.2,6.2z"/>
	</g>
</g>
<g>
	<path d="M93.2,28.2H76.1v9h19.5v6.3H68.9V8.4h25.8v6.2H76.1v7.5h17.1V28.2z"/>
	<path d="M114.8,24.7c-0.6-1.3-1.7-1.9-3.4-1.9c-1.9,0-3.2,0.6-3.9,1.9c-0.4,0.7-0.5,1.8-0.5,3.2v15.6h-6.9V17.6h6.6v3.8
		c0.8-1.4,1.6-2.3,2.4-2.9c1.3-1,3-1.5,5.1-1.5c2,0,3.6,0.4,4.8,1.3c1,0.8,1.7,1.9,2.2,3.1c0.9-1.5,2-2.6,3.3-3.4
		c1.4-0.7,3-1.1,4.7-1.1c1.1,0,2.3,0.2,3.4,0.7s2.1,1.2,3,2.3c0.7,0.9,1.2,2,1.5,3.3c0.2,0.9,0.2,2.2,0.2,3.8l0,16.4h-7V27
		c0-1-0.2-1.8-0.5-2.4c-0.6-1.2-1.7-1.8-3.3-1.8c-1.9,0-3.2,0.8-3.9,2.3c-0.4,0.8-0.5,1.8-0.5,3v15.5h-6.8V28.1
		C115.3,26.5,115.1,25.4,114.8,24.7z"/>
	<path d="M164.9,20.3c2.1,2.2,3.1,5.5,3.1,9.9c0,4.6-1,8.1-3.1,10.5c-2.1,2.4-4.7,3.6-8,3.6c-2.1,0-3.8-0.5-5.1-1.5
		c-0.7-0.6-1.5-1.4-2.2-2.5v13.5H143V17.5h6.5v3.8c0.7-1.1,1.5-2,2.3-2.7c1.5-1.2,3.3-1.7,5.4-1.7C160.2,17,162.8,18.1,164.9,20.3z
		 M161.1,30.5c0-2-0.5-3.8-1.4-5.3s-2.4-2.3-4.4-2.3c-2.5,0-4.2,1.2-5.1,3.5c-0.5,1.2-0.7,2.8-0.7,4.7c0,3,0.8,5.1,2.4,6.4
		c1,0.7,2.1,1.1,3.4,1.1c1.9,0,3.3-0.7,4.3-2.2C160.6,34.9,161.1,33,161.1,30.5z"/>
	<path d="M194.2,20.8c2.2,2.7,3.3,6,3.3,9.8c0,3.8-1.1,7.1-3.3,9.8c-2.2,2.7-5.5,4.1-10,4.1s-7.8-1.4-10-4.1c-2.2-2.7-3.3-6-3.3-9.8
		c0-3.8,1.1-7,3.3-9.8c2.2-2.7,5.5-4.1,10-4.1S192,18.1,194.2,20.8z M184.2,22.5c-2,0-3.5,0.7-4.6,2.1s-1.6,3.4-1.6,6s0.5,4.6,1.6,6
		s2.6,2.1,4.6,2.1c2,0,3.5-0.7,4.6-2.1s1.6-3.4,1.6-6s-0.5-4.6-1.6-6S186.1,22.5,184.2,22.5z"/>
	<path d="M221.5,43.5l-4.1-18.9l-4.1,18.9h-7.1l-7.3-26h7.3l4.1,18.6l3.7-18.6h6.9l4,18.7l4.1-18.7h7.1l-7.5,26H221.5z"/>
	<path d="M261.6,35.9c-0.2,1.5-1,3.1-2.4,4.7c-2.2,2.5-5.3,3.8-9.3,3.8c-3.3,0-6.2-1.1-8.7-3.2s-3.8-5.6-3.8-10.4
		c0-4.5,1.1-7.9,3.4-10.3s5.2-3.6,8.9-3.6c2.2,0,4.1,0.4,5.8,1.2c1.7,0.8,3.2,2.1,4.3,3.8c1,1.5,1.7,3.3,2,5.4
		c0.2,1.2,0.2,2.9,0.2,5.1h-17.8c0.1,2.6,0.9,4.4,2.5,5.5c0.9,0.7,2.1,1,3.4,1c1.4,0,2.5-0.4,3.4-1.2c0.5-0.4,0.9-1,1.3-1.8H261.6z
		 M254.8,27.9c-0.1-1.8-0.7-3.2-1.6-4.1c-1-0.9-2.2-1.4-3.6-1.4c-1.6,0-2.8,0.5-3.7,1.5c-0.9,1-1.4,2.3-1.6,4H254.8z"/>
	<path d="M279,23.8c-2.7,0-4.6,0.9-5.5,2.7c-0.5,1-0.8,2.5-0.8,4.6v12.4h-6.8v-26h6.5v4.5c1-1.7,2-2.9,2.7-3.6
		c1.3-1.1,2.9-1.6,5-1.6c0.1,0,0.2,0,0.3,0c0.1,0,0.3,0,0.6,0v7c-0.4,0-0.8-0.1-1.1-0.1C279.5,23.8,279.3,23.8,279,23.8z"/>
</g>
</svg>
